<svg width="512" height="512" viewBox="0 0 512 512" fill="none" xmlns="http://www.w3.org/2000/svg">
  <defs>
    <linearGradient id="groovifyOrb" x1="86" y1="64" x2="414" y2="438" gradientUnits="userSpaceOnUse">
      <stop stop-color="#8B5CF6"/>
      <stop offset="0.42" stop-color="#6366F1"/>
      <stop offset="1" stop-color="#14B8A6"/>
    </linearGradient>
    <linearGradient id="groovifyWave" x1="143" y1="142" x2="360" y2="357" gradientUnits="userSpaceOnUse">
      <stop stop-color="#F8FAFC"/>
      <stop offset="1" stop-color="#DBEAFE"/>
    </linearGradient>
    <filter id="softGlow" x="22" y="20" width="468" height="472" filterUnits="userSpaceOnUse" color-interpolation-filters="sRGB">
      <feFlood flood-opacity="0" result="BackgroundImageFix"/>
      <feBlend mode="normal" in="SourceGraphic" in2="BackgroundImageFix" result="shape"/>
      <feGaussianBlur stdDeviation="22" result="effect1_foregroundBlur_1_2"/>
    </filter>
  </defs>
  <g filter="url(#softGlow)">
    <path d="M255.999 56C373.084 56 456 138.916 456 256.001C456 373.086 373.084 456.001 255.999 456.001C138.914 456.001 56 373.086 56 256.001C56 138.916 138.914 56 255.999 56Z" fill="url(#groovifyOrb)"/>
  </g>
  <path d="M256 72C364.248 72 440 147.752 440 256C440 364.248 364.248 440 256 440C147.752 440 72 364.248 72 256C72 147.752 147.752 72 256 72Z" fill="url(#groovifyOrb)"/>
  <path d="M259.053 136.277C278.086 129.631 298.936 139.661 305.583 158.694C308.341 166.595 308.245 175.188 305.312 183.025L286.326 233.762H326.925C347.084 233.762 363.425 250.103 363.425 270.262C363.425 290.422 347.084 306.762 326.925 306.762H258.999L239.39 359.177C232.744 378.21 211.894 388.24 192.861 381.593C173.828 374.947 163.798 354.097 170.444 335.064C173.202 327.163 177.863 320.128 183.904 314.487L227.847 273.446H185.158C164.999 273.446 148.658 257.106 148.658 236.946C148.658 216.787 164.999 200.446 185.158 200.446H253.085L270.509 153.84C273.441 146.004 278.02 138.851 284.061 133.21L259.053 136.277Z" fill="url(#groovifyWave)"/>
  <path d="M170.354 345.669C162.091 372.735 176.171 401.398 202.315 409.764C228.458 418.13 257.281 403.031 266.308 376.209L285.657 318.733H326.925C353.711 318.733 375.396 297.048 375.396 270.262C375.396 243.477 353.711 221.791 326.925 221.791H303.624L316.792 186.203C320.702 175.641 320.751 164.039 316.929 153.299C308.082 128.436 280.688 115.358 255.824 124.205L227.591 134.251L285.428 127.205L278.528 154.729L261.647 221.791H185.158C158.372 221.791 136.687 243.477 136.687 270.262C136.687 297.048 158.372 318.733 185.158 318.733H197.597L175.79 339.361C173.285 341.73 171.383 343.906 170.354 345.669Z" fill="#111827" fill-opacity="0.14"/>
  <circle cx="166" cy="171" r="17" fill="#F8FAFC" fill-opacity="0.88"/>
  <circle cx="346" cy="341" r="13" fill="#F8FAFC" fill-opacity="0.72"/>
</svg>
